# Blender 5.0.0
# www.blender.org
mtllib round.mtl
o Cilindro
v 0.000000 -0.200000 -0.891761
v 0.000000 -0.180000 -1.000000
v 0.000000 -0.197320 -0.945880
v 0.000000 -0.190000 -0.985499
v 0.000000 0.200000 -0.891761
v 0.000000 0.180000 -1.000000
v 0.000000 0.197320 -0.945880
v 0.000000 0.190000 -0.985499
v 0.630570 -0.200000 -0.630570
v 0.707107 -0.180000 -0.707107
v 0.668838 -0.197320 -0.668838
v 0.696853 -0.190000 -0.696853
v 0.630570 0.200000 -0.630570
v 0.707107 0.180000 -0.707107
v 0.668838 0.197320 -0.668838
v 0.696853 0.190000 -0.696853
v 0.891761 -0.200000 0.000000
v 1.000000 -0.180000 0.000000
v 0.945880 -0.197320 0.000000
v 0.985499 -0.190000 0.000000
v 0.891761 0.200000 0.000000
v 1.000000 0.180000 0.000000
v 0.945880 0.197320 0.000000
v 0.985499 0.190000 0.000000
v 0.630570 -0.200000 0.630570
v 0.707107 -0.180000 0.707107
v 0.668838 -0.197320 0.668838
v 0.696853 -0.190000 0.696853
v 0.630570 0.200000 0.630570
v 0.707107 0.180000 0.707107
v 0.668838 0.197320 0.668838
v 0.696853 0.190000 0.696853
v 0.000000 -0.200000 0.891761
v 0.000000 -0.180000 1.000000
v 0.000000 -0.197320 0.945880
v 0.000000 -0.190000 0.985499
v 0.000000 0.200000 0.891761
v 0.000000 0.180000 1.000000
v 0.000000 0.197320 0.945880
v 0.000000 0.190000 0.985499
v -0.630570 -0.200000 0.630570
v -0.707107 -0.180000 0.707107
v -0.668838 -0.197320 0.668838
v -0.696853 -0.190000 0.696853
v -0.630570 0.200000 0.630570
v -0.707107 0.180000 0.707107
v -0.668838 0.197320 0.668838
v -0.696853 0.190000 0.696853
v -0.891761 -0.200000 0.000000
v -1.000000 -0.180000 0.000000
v -0.945880 -0.197320 0.000000
v -0.985499 -0.190000 0.000000
v -0.891761 0.200000 0.000000
v -1.000000 0.180000 0.000000
v -0.945880 0.197320 0.000000
v -0.985499 0.190000 0.000000
v -0.630570 -0.200000 -0.630570
v -0.707107 -0.180000 -0.707107
v -0.668838 -0.197320 -0.668838
v -0.696853 -0.190000 -0.696853
v -0.630570 0.200000 -0.630570
v -0.707107 0.180000 -0.707107
v -0.668838 0.197320 -0.668838
v -0.696853 0.190000 -0.696853
vn 0.2289 -0.8014 -0.5526
vn 0.0751 -0.9806 -0.1812
vn 0.0205 -0.9986 -0.0494
vn 0.2289 0.8014 -0.5526
vn 0.0751 0.9806 -0.1812
vn 0.0205 0.9986 -0.0494
vn 0.5526 -0.8014 -0.2289
vn 0.1812 -0.9806 -0.0751
vn 0.0494 -0.9986 -0.0205
vn 0.5526 0.8014 -0.2289
vn 0.1812 0.9806 -0.0751
vn 0.0494 0.9986 -0.0205
vn 0.5526 -0.8014 0.2289
vn 0.1812 -0.9806 0.0751
vn 0.0494 -0.9986 0.0205
vn 0.5526 0.8014 0.2289
vn 0.1812 0.9806 0.0751
vn 0.0494 0.9986 0.0205
vn 0.2289 -0.8014 0.5526
vn 0.0751 -0.9806 0.1812
vn 0.0205 -0.9986 0.0494
vn 0.2289 0.8014 0.5526
vn 0.0751 0.9806 0.1812
vn 0.0205 0.9986 0.0494
vn -0.2289 -0.8014 0.5526
vn -0.0751 -0.9806 0.1812
vn -0.0205 -0.9986 0.0494
vn -0.2289 0.8014 0.5526
vn -0.0751 0.9806 0.1812
vn -0.0205 0.9986 0.0494
vn -0.5526 -0.8014 0.2289
vn -0.1812 -0.9806 0.0751
vn -0.0494 -0.9986 0.0205
vn -0.5526 0.8014 0.2289
vn -0.1812 0.9806 0.0751
vn -0.0494 0.9986 0.0205
vn -0.5526 -0.8014 -0.2289
vn -0.1812 -0.9806 -0.0751
vn -0.0494 -0.9986 -0.0205
vn -0.5526 0.8014 -0.2289
vn -0.1812 0.9806 -0.0751
vn -0.0494 0.9986 -0.0205
vn -0.2289 -0.8014 -0.5526
vn -0.0751 -0.9806 -0.1812
vn -0.0205 -0.9986 -0.0494
vn -0.2289 0.8014 -0.5526
vn -0.0751 0.9806 -0.1812
vn -0.0205 0.9986 -0.0494
vn -0.0000 -1.0000 -0.0000
vn 0.3827 -0.0000 -0.9239
vn -0.3827 -0.0000 -0.9239
vn -0.0000 1.0000 -0.0000
vn 0.9239 -0.0000 -0.3827
vn 0.9239 -0.0000 0.3827
vn 0.3827 -0.0000 0.9239
vn -0.3827 -0.0000 0.9239
vn -0.9239 -0.0000 0.3827
vn -0.9239 -0.0000 -0.3827
vt 1.000000 0.525000
vt 0.875000 0.525000
vt 0.875000 0.500000
vt 0.999094 0.500000
vt 0.750000 0.489490
vt 0.919345 0.419345
vt 0.910521 0.410521
vt 0.750000 0.477011
vt 0.901337 0.401337
vt 0.750000 0.464023
vt 0.875000 0.975000
vt 1.000000 0.975000
vt 0.999094 1.000000
vt 0.875000 1.000000
vt 0.419345 0.419345
vt 0.250000 0.489490
vt 0.250000 0.477011
vt 0.410521 0.410521
vt 0.250000 0.464023
vt 0.401337 0.401337
vt 0.750000 0.525000
vt 0.750000 0.500000
vt 0.989490 0.250000
vt 0.977011 0.250000
vt 0.964023 0.250000
vt 0.750000 0.975000
vt 0.750000 1.000000
vt 0.489490 0.250000
vt 0.477011 0.250000
vt 0.464023 0.250000
vt 0.625000 0.525000
vt 0.625000 0.500000
vt 0.919345 0.080655
vt 0.910521 0.089479
vt 0.901337 0.098663
vt 0.625000 0.975000
vt 0.625000 1.000000
vt 0.419345 0.080655
vt 0.410521 0.089479
vt 0.401337 0.098663
vt 0.500000 0.525000
vt 0.500000 0.500000
vt 0.750000 0.010510
vt 0.750000 0.022989
vt 0.750000 0.035977
vt 0.500000 0.975000
vt 0.500000 1.000000
vt 0.250000 0.010510
vt 0.250000 0.022989
vt 0.250000 0.035977
vt 0.375000 0.525000
vt 0.375000 0.500000
vt 0.580655 0.080655
vt 0.589479 0.089479
vt 0.598663 0.098663
vt 0.375000 0.975000
vt 0.375000 1.000000
vt 0.080655 0.080655
vt 0.089479 0.089479
vt 0.098663 0.098663
vt 0.250000 0.525000
vt 0.250000 0.500000
vt 0.510510 0.250000
vt 0.522989 0.250000
vt 0.535977 0.250000
vt 0.250000 0.975000
vt 0.250000 1.000000
vt 0.010510 0.250000
vt 0.022989 0.250000
vt 0.035977 0.250000
vt 0.125000 0.525000
vt 0.125000 0.500000
vt 0.580655 0.419345
vt 0.589479 0.410521
vt 0.598663 0.401337
vt 0.125000 0.975000
vt 0.125000 1.000000
vt 0.080655 0.419345
vt 0.089479 0.410521
vt 0.098663 0.401337
vt 0.000000 0.525000
vt 0.000906 0.500000
vt 0.000000 0.975000
vt 0.000906 1.000000
s 0
f 2/1/1 10/2/1 12/3/1 4/4/1
f 4/5/2 12/6/2 11/7/2 3/8/2
f 3/8/3 11/7/3 9/9/3 1/10/3
f 14/11/4 6/12/4 8/13/4 16/14/4
f 16/15/5 8/16/5 7/17/5 15/18/5
f 15/18/6 7/17/6 5/19/6 13/20/6
f 10/2/7 18/21/7 20/22/7 12/3/7
f 12/6/8 20/23/8 19/24/8 11/7/8
f 11/7/9 19/24/9 17/25/9 9/9/9
f 22/26/10 14/11/10 16/14/10 24/27/10
f 24/28/11 16/15/11 15/18/11 23/29/11
f 23/29/12 15/18/12 13/20/12 21/30/12
f 18/21/13 26/31/13 28/32/13 20/22/13
f 20/23/14 28/33/14 27/34/14 19/24/14
f 19/24/15 27/34/15 25/35/15 17/25/15
f 30/36/16 22/26/16 24/27/16 32/37/16
f 32/38/17 24/28/17 23/29/17 31/39/17
f 31/39/18 23/29/18 21/30/18 29/40/18
f 26/31/19 34/41/19 36/42/19 28/32/19
f 28/33/20 36/43/20 35/44/20 27/34/20
f 27/34/21 35/44/21 33/45/21 25/35/21
f 38/46/22 30/36/22 32/37/22 40/47/22
f 40/48/23 32/38/23 31/39/23 39/49/23
f 39/49/24 31/39/24 29/40/24 37/50/24
f 34/41/25 42/51/25 44/52/25 36/42/25
f 36/43/26 44/53/26 43/54/26 35/44/26
f 35/44/27 43/54/27 41/55/27 33/45/27
f 46/56/28 38/46/28 40/47/28 48/57/28
f 48/58/29 40/48/29 39/49/29 47/59/29
f 47/59/30 39/49/30 37/50/30 45/60/30
f 42/51/31 50/61/31 52/62/31 44/52/31
f 44/53/32 52/63/32 51/64/32 43/54/32
f 43/54/33 51/64/33 49/65/33 41/55/33
f 54/66/34 46/56/34 48/57/34 56/67/34
f 56/68/35 48/58/35 47/59/35 55/69/35
f 55/69/36 47/59/36 45/60/36 53/70/36
f 50/61/37 58/71/37 60/72/37 52/62/37
f 52/63/38 60/73/38 59/74/38 51/64/38
f 51/64/39 59/74/39 57/75/39 49/65/39
f 62/76/40 54/66/40 56/67/40 64/77/40
f 64/78/41 56/68/41 55/69/41 63/79/41
f 63/79/42 55/69/42 53/70/42 61/80/42
f 58/71/43 2/81/43 4/82/43 60/72/43
f 60/73/44 4/5/44 3/8/44 59/74/44
f 59/74/45 3/8/45 1/10/45 57/75/45
f 6/83/46 62/76/46 64/77/46 8/84/46
f 8/16/47 64/78/47 63/79/47 7/17/47
f 7/17/48 63/79/48 61/80/48 5/19/48
f 1/10/49 9/9/49 17/25/49 25/35/49 33/45/49 41/55/49 49/65/49 57/75/49
f 2/1/50 6/12/50 14/11/50 10/2/50
f 58/71/51 62/76/51 6/83/51 2/81/51
f 13/20/52 5/19/52 61/80/52 53/70/52 45/60/52 37/50/52 29/40/52 21/30/52
f 10/2/53 14/11/53 22/26/53 18/21/53
f 18/21/54 22/26/54 30/36/54 26/31/54
f 26/31/55 30/36/55 38/46/55 34/41/55
f 34/41/56 38/46/56 46/56/56 42/51/56
f 42/51/57 46/56/57 54/66/57 50/61/57
f 50/61/58 54/66/58 62/76/58 58/71/58
